<svg xmlns="http://www.w3.org/2000/svg" width="100" height="100" viewBox="0 0 100 100"><path d="M62.925 87.354c-1.733-1.275-1.918-3.19-1.918-3.19l-.65-4.153H39.644l-.652 4.153s-.18 1.916-1.913 3.19c-1.732 1.275-3.1 2.37-1.732 2.554 1.317.178 13.74.016 14.656 0 .92.016 13.34.178 14.656 0 1.365-.184-.002-1.276-1.73-2.553zM22.75 43.505h8v15h-8zM39.75 36.505h8v22h-8zM55.752 43.505h8v15h-8zM70.752 36.505h8v22h-8z"/><path d="M44.648 28.065l16.172 10.36L83.174 22.25l-2.346-3.24-20.144 14.576-15.83-10.14-28.028 14.41 1.85 3.547"/><path d="M96 10.01H4c-2.21 0-4 1.79-4 4v58c0 2.21 1.79 4 4 4h92c2.21 0 4-1.79 4-4v-58c0-2.21-1.79-4-4-4zm-2 54H6v-48h88v48z"/></svg>