<svg xmlns="http://www.w3.org/2000/svg" viewBox="0 0 35.933 35.933"><path d="M29.646 10.46c-3.14-2.692-7.215-4.33-11.682-4.33C8.044 6.13 0 14.173 0 24.1c0 .265.026 2.75.038 3.014v2.69H35.86V27.31l.034-.196c.01-.266.04-2.75.04-3.015 0-8.81-6.288-13.64-6.288-13.64zM4.37 27.115c-.015-.164.006-2.55-.005-2.713H8.05v-1.19H4.624c0-.013-.26.003-.26.003.146-3.085 1.32-6.163 3.54-8.59l.093-.1.166.144 2.452 2.454.77-.77-2.605-2.604c2.358-2.156 5.35-3.393 8.542-3.535h.185s.077-.003.072.046v3.634h.98v-3.68c.484.02.968.078 1.445.153 2.74.362 5.29 1.545 7.352 3.43l-2.6 2.602.723.726 2.497-2.497.138-.11.118.155c2.16 2.36 3.394 5.35 3.54 8.543H28.09v1.19l3.7-.004s.002 2.56-.01 2.71l-27.41.008zm18.43-8.586s-5.844 1.792-6.963 2.91c-1.12 1.12-1.12 2.934.002 4.056 1.116 1.12 2.93 1.12 4.053 0 1.118-1.122 2.907-6.966 2.907-6.966z"/></svg>