<svg xmlns="http://www.w3.org/2000/svg" width="800" height="263" viewBox="0 0 800 263"><g fill="#33598A"><path d="M191.85 68.717c11.243-11.03 18.21-11.36 18.21-11.36s2.192-.33 7.512 1.537c5.32 1.865 5.54 4.72 5.54 4.72v80.73c.68 22.596-4.937 31.285-11.683 37.322-3.835 3.114-6.915 3.513-7.294 3.513-.933 0-1.646-.11-1.81-1.372-.165-1.263.986-4.556.986-4.556 3.4-8.617 3.126-23.546 3.126-23.546l.33-86.99s.272-1.59-1.098-1.097c-13.27 11.415-14.917 27.496-15.355 35.29-.22 11.69 4.854 17.727 4.854 17.727s1.314 1.152 1.15 2.8c0 2.222-2.057 2.058-2.057 2.058-4.99-.466-12.942-6.12-15.794-12.925-2.365-5.03-2.305-10.455-2.305-10.455.166-6.835 4.443-22.366 15.686-33.398zm578.984 77.138c0 25.964-15.73 25.548-15.73 25.548-14.964.534-18.794-15.283-19.737-31.362-.71-12.09 0-25.547 0-25.547s-.104-.623-.516 0c-5.003 9.087-8.405 22.874-10.073 33.543-1.21 7.744-1.336 14.23-1.336 14.23s.206 1.453-1.028 2.284c-8.12 3.738-13.363-1.56-15.215-7.48-2.467-5.606-3.906-39.357-3.906-41.123s-1.438-.416-1.438-.416c-11.205 18.8-11.31 46.423-11.31 52.03 0 5.608-9.56 3.843-9.56 3.843-8.12-.623-7.813-4.57-7.813-4.57l-.37-6.7c-2.822 5.205-8.068 11.965-16.135 11.443-12.21-.79-14.58-13.434-14.758-15.568 0 0-6.08 15.746-22.805 15.568-11.36-.18-15.92-11.922-15.92-11.922s-4.56 12.277-15.738 11.832c-11.18-.444-20.39-13.344-19.676-30.068s3.31-25.087 3.31-25.087.894-1.69-.628-1.778c-1.518-.09-11.178.178-11.178.178s-5.455 21.885-28.53 49.106c0 0 .187 8.51.18 17.97-.013 17.895-2.235 41.902-26.472 43.86-20.967-1.417-19.785-17.583-19.785-17.583-.5-4.75 2.5-13.5 15-25.25s17.5-16.25 17.5-16.25l-.5-7.5c-8 13.25-20.25 12.5-20.25 12.5s-9.46 1.923-17.412-12.15c-2.342 4.82-7.656 13.045-16.35 12.088-12.215-1.344-14.64-13.534-14.82-15.686 0 0-6.107 15.866-22.902 15.687-11.405-.18-15.985-12.01-15.985-12.01-1.322-2.397-2.342-6.033-2.873-8.176-.135.438-.293.913-.51 1.47-2.586 6.62-8.992 18.16-18.82 18.31-18.056 0-18.817-28.01-18.817-28.01-5.222 12.425-15.447 28.337-34.483 28.23-19.036-.11-21.32-6.977-21.32-7.957 0-.982-.327-2.07 1.85-5.232 2.175-3.16 4.024-4.468 5.547-4.468 1.522 0 4.242 2.288 4.242 2.288s4.133 4.032 8.81 4.032c5.983-.218 7.29-5.013 7.725-9.916.435-4.904-3.046-10.135-7.833-14.495-4.786-4.358-8.484-7.628-8.484-7.628-6.853 11.553-12.074 19.398-15.882 26.156-9.246 15.04-18.422 17.366-21.973 16.893-4.896-.654-9.573-5.668-9.79-20.272-.218-14.603 1.088-39.56 1.088-40.868 0-1.31-1.196-.654-1.196-.654-18.275 19.4-23.715 59.288-23.715 60.05 0 .765-1.63 1.636-3.264 1.636-1.63 0 .545-.108-5.982-.327-6.526-.217-6.092-12.64-6.092-12.64l.436-59.4c.108-1.96 1.958-2.832 8.158-1.196 6.2 1.634 5.983 3.705 5.983 3.705l-.217 34.438c15.99-47.19 28.064-39.78 35.353-36.184 7.29 3.597 6.31 8.828 6.31 8.828s-.762 25.938-1.088 35.094.98 12.75 3.046 13.078c5.113 1.2 23.28-33.895 23.28-33.895-8.052-8.72-3.657-19.362 2.61-23.98 4.256-3.136 9.463-3.486 9.463-3.486s8.158-.436 7.94 6.43c.217 7.522-8.158 16.676-8.158 16.676 16.207 11.552 23.82 17.656 25.02 26.592.535 4.285-.437 6.975-.437 6.975 11.53-10.025 12.4-21.25 12.4-21.25l.218-37.493-17.077-.217s-1.305-.11-1.522-3.27c0-5.996 3.155-8.503 3.155-8.503l16.316.22s.546-16.894.654-19.62c.543-3.922 3.045-4.468 10.225-2.614 7.18 1.853 7.18 3.487 7.18 3.487l-.872 19.727s17.95.872 20.343 1.09c2.396.218 3.155.873 2.612 4.904-.545 4.032-2.938 5.015-2.938 5.015l-20.233.436-1.413 43.485c0 6.756.326 22.668 6.636 22.56 8.81.435 14.033-19.29 14.033-19.29l.098-.16c-.1-3.074-.035-6.76.4-10.9 1.672-15.848 8.736-34.42 24.967-34.42 0 0 9.882-.358 15.09 9.5l.18-3.584s-.358-4.302 6.468-3.227c6.826 1.076 9.16 3.766 8.98 5.916 0 0-1.256 27.608-.537 43.922.915 9.48 2.542 15.08 7.364 14.7 4.154-.606 7.107-6.29 8.893-11.13-6.035-50.2 21.44-56.286 21.44-56.286s12.16-.89 17.704 9.252l.18-3.38s-.536-4.448 5.905-3.203c0 0 2.682.355 5.543 1.423s3.756 1.78 3.756 4.448-.537 49.573-.537 49.573 14.31-19.216 17.887-37.898c0 0-5.008-3.736-4.648-9.074.355-5.338 3.04-11.743 10.908-11.743 7.87 0 8.23 6.94 6.977 11.743 0 0 6.618-.89 12.343-2.313 5.725-1.424 13.416-2.313 13.95 6.583.358 3.203-1.073 5.693-1.073 5.693s-4.47 19.75-3.756 27.757c.717 8.007 2.863 20.105 9.123 18.682 6.26-1.424 8.406-10.32 8.406-10.32s-2.516-10.295-1.252-22.24c1.665-15.73 8.7-34.16 24.862-34.16 0 0 9.838-.356 15.025 9.43l.18-3.56s-.36-4.27 6.44-3.203c6.794 1.068 9.12 3.737 8.94 5.87 0 0-1.252 27.402-.535 43.594.91 9.408 2.53 14.968 7.332 14.59 4.63-.136 8.533-7.964 10.95-14.344l-.03-2.36.154-46.267c.385-2.65 2.775-2.805 2.775-2.805l5.55.856c7.788 1.17 6.708 4.13 6.708 4.13v26.17c5.784-17.76 8.562-24.535 11.183-29.053 2.234-3.85 9.56-1.324 9.56-1.324s7.942 2.104 8.097 9.425c-.23 12.073 1.465 31.74 1.465 31.74.03.313.3.41.45.272.118-.106.128-.43.128-.43 1.58-12.655 8.777-33.427 11.656-38.826 2.876-5.4 11.204-1.56 11.204-1.56 9.973 3.43 8.635 9.348 8.635 9.348-2.98 50.783 3.288 54.106 6.99 54.418 3.7.313 5.655-4.466 6.478-6.75.822-2.285 1.85-7.27 2.467-9.243.615-1.973 2.57-2.077 2.57-2.077s2.26.516 2.26 2.385zM434.002 106.98c-3.502.136-11.72 2.422-13.2 25.28-1.48 22.855 4.58 28.77 9.698 29.444 5.12.672 14.145-7.53 14.684-31.866.54-24.336-11.182-22.857-11.182-22.857zm71.664.104c-3.555.137-12.5 3.25-14.52 25.378-1.502 23.157 4.648 29.15 9.848 29.833 5.197.68 14.36-7.628 14.904-32.285.55-24.657-10.232-22.926-10.232-22.926zm12 71c-20.25 17.5-22 30-22 30s-2 10.25 7.75 10.75c11.717 1.187 13.684-13.044 14-25.5.15-5.883.25-15.25.25-15.25zm111.025-70.29c-3.5.134-11.722 2.42-13.202 25.277-1.48 22.857 4.58 28.773 9.7 29.446 5.12.672 14.146-7.53 14.683-31.866.542-24.337-11.18-22.857-11.18-22.857zM141.068 57.757H44.265c-8.34 0-15.1 6.743-15.1 15.063v96.875c0 8.318 6.76 15.062 15.1 15.062h96.804c8.338 0 15.097-6.743 15.097-15.062V72.82c0-8.32-6.76-15.063-15.1-15.063zm-23.682 18.016c0-1.957 1.59-3.544 3.552-3.544h17.17c1.963 0 3.553 1.586 3.553 3.543v17.13c0 1.958-1.59 3.544-3.55 3.544h-17.172c-1.962 0-3.552-1.586-3.552-3.544v-17.13zM92.814 97.038c13.488 0 24.423 10.91 24.423 24.366 0 13.457-10.935 24.365-24.423 24.365S68.39 134.86 68.39 121.403c.002-13.456 10.936-24.366 24.424-24.366zm49.142 69.406c0 1.957-1.59 3.544-3.552 3.544h-91.18c-1.962 0-3.553-1.587-3.553-3.544v-55.23h11.884c-.894 3.248-1.373 6.664-1.373 10.19 0 21.252 17.33 38.542 38.634 38.542 21.302 0 38.633-17.29 38.633-38.542 0-3.526-.48-6.942-1.373-10.19h11.882v55.23z"/></g></svg>