<svg xmlns="http://www.w3.org/2000/svg" width="97.395" height="97.395" viewBox="0 0 97.395 97.395"><path fill="#FFF" d="M12.5 0h72.394c6.875 0 12.5 5.09 12.5 12.5v72.395c0 7.41-5.625 12.5-12.5 12.5H12.5c-6.876 0-12.5-5.09-12.5-12.5V12.5C0 5.09 5.624 0 12.5 0zM70.95 10.82c-2.412 0-4.384 1.974-4.384 4.387v10.495c0 2.41 1.972 4.385 4.384 4.385h11.008c2.412 0 4.385-1.974 4.385-4.385V15.206c0-2.413-1.972-4.386-4.384-4.386H70.948zm15.44 30.368h-8.573c.812 2.648 1.25 5.453 1.25 8.355 0 16.2-13.556 29.332-30.274 29.332S18.52 65.743 18.52 49.543c0-2.904.438-5.708 1.25-8.355h-8.944V82.33c0 2.13 1.74 3.872 3.87 3.872h67.823c2.13 0 3.872-1.742 3.872-3.872V41.188h-.003zm-37.6-11.655c-10.802 0-19.56 8.484-19.56 18.952 0 10.47 8.758 18.953 19.56 18.953s19.563-8.484 19.563-18.953c0-10.467-8.757-18.952-19.56-18.952z"/></svg>